<svg version="1.0" xmlns="http://www.w3.org/2000/svg"
 width="43.000000pt" height="50.000000pt" viewBox="0 0 43.000000 50.000000"
 preserveAspectRatio="xMidYMid meet">
<g transform="translate(0.000000,50.000000) scale(0.100000,-0.100000)"
fill="#000000" stroke="none">
<path d="M192 342 c-17 -5 -55 -71 -59 -101 -5 -52 17 -71 56 -47 5 4 11 1 13
-6 3 -9 12 -9 36 1 36 15 45 47 12 38 -16 -4 -20 -1 -16 11 2 9 7 31 11 47 3
17 8 37 11 46 3 11 -3 15 -24 15 -15 0 -33 -1 -40 -4z m24 -34 c-3 -13 -6 -31
-6 -40 0 -18 -26 -48 -41 -48 -13 0 -11 37 2 63 26 47 56 64 45 25z"/>
</g>
</svg>